<svg width="59" height="59" viewBox="0 0 59 59" fill="none" xmlns="http://www.w3.org/2000/svg">
<path d="M29.5 22.184C28.053 22.184 26.6386 22.6131 25.4354 23.417C24.2323 24.2209 23.2946 25.3635 22.7409 26.7003C22.1872 28.0371 22.0423 29.5081 22.3246 30.9273C22.6069 32.3464 23.3036 33.65 24.3268 34.6732C25.35 35.6964 26.6536 36.3931 28.0727 36.6754C29.4919 36.9577 30.9629 36.8128 32.2997 36.2591C33.6365 35.7054 34.7791 34.7677 35.583 33.5646C36.3869 32.3614 36.816 30.947 36.816 29.5C36.816 28.5392 36.6268 27.5879 36.2591 26.7003C35.8914 25.8127 35.3525 25.0062 34.6732 24.3268C33.9938 23.6475 33.1873 23.1086 32.2997 22.7409C31.4121 22.3732 30.4607 22.184 29.5 22.184ZM58.7935 14.9565C58.778 12.6784 58.3585 10.4211 57.5545 8.2895C56.9624 6.72972 56.0462 5.31323 54.8665 4.1335C53.6868 2.95377 52.2703 2.03762 50.7105 1.4455C48.5789 0.641518 46.3216 0.22202 44.0435 0.2065C40.238 -2.00087e-07 39.117 0 29.5 0C19.883 0 18.762 -2.00087e-07 14.9565 0.2065C12.6784 0.22202 10.4211 0.641518 8.2895 1.4455C6.72972 2.03762 5.31323 2.95377 4.1335 4.1335C2.95377 5.31323 2.03762 6.72972 1.4455 8.2895C0.641518 10.4211 0.22202 12.6784 0.2065 14.9565C-2.00087e-07 18.762 0 19.883 0 29.5C0 39.117 -2.00087e-07 40.238 0.2065 44.0435C0.238253 46.3296 0.657184 48.5938 1.4455 50.74C2.03499 52.2926 2.95038 53.7009 4.13 54.87C5.30467 56.0568 6.7242 56.973 8.2895 57.5545C10.4211 58.3585 12.6784 58.778 14.9565 58.7935C18.762 59 19.883 59 29.5 59C39.117 59 40.238 59 44.0435 58.7935C46.3216 58.778 48.5789 58.3585 50.7105 57.5545C52.2758 56.973 53.6953 56.0568 54.87 54.87C56.0496 53.7009 56.965 52.2926 57.5545 50.74C58.3577 48.598 58.7771 46.3311 58.7935 44.0435C59 40.238 59 39.117 59 29.5C59 19.883 59 18.762 58.7935 14.9565ZM51.3005 38.5565C51.2058 40.377 50.8173 42.1701 50.15 43.8665C49.5773 45.2816 48.7259 46.567 47.6465 47.6465C46.567 48.7259 45.2816 49.5773 43.8665 50.15C42.1541 50.7801 40.3509 51.1288 38.527 51.1825H20.473C18.6491 51.1288 16.8459 50.7801 15.1335 50.15C13.6706 49.6064 12.3495 48.7391 11.269 47.613C10.2001 46.5547 9.37464 45.2762 8.85 43.8665C8.21739 42.1558 7.87829 40.3506 7.847 38.527V29.5V20.473C7.87829 18.6494 8.21739 16.8442 8.85 15.1335C9.39363 13.6706 10.2609 12.3495 11.387 11.269C12.45 10.2059 13.7271 9.38128 15.1335 8.85C16.8459 8.2199 18.6491 7.87122 20.473 7.8175H38.527C40.3509 7.87122 42.1541 8.2199 43.8665 8.85C45.3294 9.39363 46.6505 10.2609 47.731 11.387C48.7999 12.4453 49.6254 13.7238 50.15 15.1335C50.7801 16.8459 51.1288 18.6491 51.1825 20.473V29.5C51.1825 35.577 51.389 36.1965 51.3005 38.527V38.5565ZM46.5805 16.6085C46.2293 15.6556 45.6755 14.7902 44.9574 14.0721C44.2392 13.354 43.3739 12.8002 42.421 12.449C41.1126 11.9955 39.7346 11.7758 38.35 11.8H20.65C19.2584 11.8136 17.8802 12.0733 16.579 12.567C15.6407 12.9023 14.7845 13.4335 14.0673 14.1252C13.3501 14.8169 12.7884 15.6534 12.4195 16.579C11.9911 17.8928 11.7818 19.2682 11.8 20.65V38.35C11.8292 39.74 12.0884 41.1156 12.567 42.421C12.9182 43.3739 13.472 44.2392 14.1901 44.9574C14.9082 45.6755 15.7736 46.2293 16.7265 46.5805C17.9852 47.0434 19.3097 47.3023 20.65 47.3475H38.35C39.7416 47.3339 41.1198 47.0742 42.421 46.5805C43.3739 46.2293 44.2392 45.6755 44.9574 44.9574C45.6755 44.2392 46.2293 43.3739 46.5805 42.421C47.0742 41.1198 47.3339 39.7416 47.3475 38.35V29.5V20.65C47.3483 19.257 47.0882 17.8762 46.5805 16.579V16.6085ZM29.5 40.769C28.0215 40.769 26.5576 40.4773 25.192 39.9106C23.8264 39.3439 22.5861 38.5134 21.542 37.4666C20.498 36.4198 19.6707 35.1773 19.1076 33.8102C18.5445 32.4432 18.2566 30.9785 18.2605 29.5C18.2605 27.2699 18.9222 25.09 20.1617 23.2362C21.4013 21.3824 23.163 19.9381 25.2239 19.086C27.2847 18.234 29.5521 18.0125 31.7388 18.4497C33.9256 18.887 35.9335 19.9632 37.5083 21.5421C39.0831 23.1211 40.1541 25.1318 40.5856 27.3197C41.017 29.5076 40.7897 31.7743 39.9322 33.8329C39.0748 35.8916 37.6258 37.6495 35.7687 38.8842C33.9117 40.1189 31.73 40.7748 29.5 40.769ZM41.3 20.4435C40.6479 20.3745 40.0444 20.0666 39.6058 19.5791C39.1672 19.0916 38.9245 18.459 38.9245 17.8032C38.9245 17.1475 39.1672 16.5149 39.6058 16.0274C40.0444 15.5399 40.6479 15.232 41.3 15.163C41.9521 15.232 42.5556 15.5399 42.9942 16.0274C43.4328 16.5149 43.6755 17.1475 43.6755 17.8032C43.6755 18.459 43.4328 19.0916 42.9942 19.5791C42.5556 20.0666 41.9521 20.3745 41.3 20.4435Z" fill="url(#paint0_linear)"/>
<defs>
<linearGradient id="paint0_linear" x1="29.5" y1="0" x2="29.5" y2="59" gradientUnits="userSpaceOnUse">
<stop stop-color="#3AA9D1"/>
<stop offset="1" stop-color="#3AC0B7"/>
</linearGradient>
</defs>
</svg>
